<svg width="720" height="720" viewBox="0 0 720 720" fill="none" xmlns="http://www.w3.org/2000/svg">
  <rect width="720" height="720" rx="56" fill="url(#bg)"/>
  <circle cx="548" cy="156" r="70" fill="white" fill-opacity="0.3"/>
  <circle cx="442" cy="108" r="34" fill="white" fill-opacity="0.2"/>
  <circle cx="585" cy="315" r="22" fill="white" fill-opacity="0.22"/>
  <circle cx="515" cy="250" r="16" fill="#F6FFFA" fill-opacity="0.55"/>
  <rect x="470" y="110" width="18" height="328" rx="9" fill="#2A6A49"/>
  <path d="M488 118H544C560 118 573 131 573 147V166" stroke="#2A6A49" stroke-width="14" stroke-linecap="round"/>
  <rect x="420" y="448" width="118" height="84" rx="16" fill="#FFC94A"/>
  <rect x="432" y="458" width="94" height="16" rx="8" fill="#FFE488"/>
  <rect x="453" y="432" width="18" height="20" rx="6" fill="#2A6A49"/>
  <rect x="435" y="530" width="88" height="18" rx="9" fill="#E8A91D"/>
  <rect x="300" y="164" width="18" height="286" rx="9" transform="rotate(10 300 164)" fill="#F7FAF8"/>
  <rect x="246" y="440" width="94" height="34" rx="10" transform="rotate(10 246 440)" fill="#D8EFE2"/>
  <rect x="236" y="472" width="110" height="56" rx="14" transform="rotate(10 236 472)" fill="white"/>
  <path d="M229 520C267 510 305 510 343 520" stroke="#7FCE9E" stroke-width="8" stroke-linecap="round"/>
  <path d="M222 540C262 530 304 530 347 541" stroke="#5DBB84" stroke-width="8" stroke-linecap="round"/>
  <circle cx="174" cy="250" r="42" fill="#FFD7B8"/>
  <path d="M136 240C140 210 161 192 191 192C215 192 233 206 239 228C228 220 214 216 198 216C173 216 151 225 136 240Z" fill="#2A6A49"/>
  <circle cx="160" cy="248" r="5" fill="#2A6A49"/>
  <circle cx="191" cy="248" r="5" fill="#2A6A49"/>
  <path d="M162 269C170 277 183 277 191 269" stroke="#C97E59" stroke-width="4" stroke-linecap="round"/>
  <rect x="128" y="300" width="92" height="120" rx="26" fill="#39A96B"/>
  <rect x="118" y="318" width="26" height="78" rx="13" fill="#FFD7B8"/>
  <rect x="204" y="318" width="26" height="86" rx="13" fill="#FFD7B8"/>
  <rect x="146" y="420" width="18" height="94" rx="9" fill="#2A6A49"/>
  <rect x="183" y="420" width="18" height="94" rx="9" fill="#2A6A49"/>
  <rect x="140" y="508" width="34" height="14" rx="6" fill="#214734"/>
  <rect x="177" y="508" width="34" height="14" rx="6" fill="#214734"/>
  <rect x="112" y="330" width="20" height="56" rx="10" transform="rotate(18 112 330)" fill="#FFD7B8"/>
  <rect x="212" y="332" width="20" height="62" rx="10" transform="rotate(-24 212 332)" fill="#FFD7B8"/>
  <rect x="226" y="296" width="14" height="176" rx="7" transform="rotate(12 226 296)" fill="#F5F7F6"/>
  <rect x="216" y="452" width="70" height="34" rx="10" transform="rotate(12 216 452)" fill="#D8EFE2"/>
  <rect x="206" y="482" width="82" height="52" rx="12" transform="rotate(12 206 482)" fill="white"/>
  <rect x="560" y="468" width="62" height="96" rx="18" fill="#39A96B"/>
  <rect x="574" y="482" width="34" height="30" rx="10" fill="#DFF5E8"/>
  <circle cx="576" cy="569" r="14" fill="#214734"/>
  <circle cx="606" cy="569" r="14" fill="#214734"/>
  <path d="M591 468V392C591 372 602 354 620 345L651 330" stroke="#2A6A49" stroke-width="12" stroke-linecap="round"/>
  <path d="M649 327L671 322L665 343L645 347L649 327Z" fill="#FFC94A"/>
  <path d="M620 500L653 492" stroke="#2A6A49" stroke-width="10" stroke-linecap="round"/>
  <circle cx="278" cy="346" r="10" fill="white" fill-opacity="0.65"/>
  <circle cx="312" cy="318" r="7" fill="white" fill-opacity="0.7"/>
  <circle cx="532" cy="404" r="8" fill="#FFF7D1"/>
  <circle cx="550" cy="388" r="6" fill="#FFF7D1"/>
  <ellipse cx="418" cy="614" rx="182" ry="32" fill="#2A6A49" fill-opacity="0.14"/>
  <defs>
    <linearGradient id="bg" x1="124" y1="86" x2="580" y2="657" gradientUnits="userSpaceOnUse">
      <stop stop-color="#F7FFF9"/>
      <stop offset="0.5" stop-color="#DCF3E5"/>
      <stop offset="1" stop-color="#B8E0C6"/>
    </linearGradient>
  </defs>
</svg>
